<svg xmlns="http://www.w3.org/2000/svg" width="360" height="220" viewBox="0 0 360 220" role="img" aria-labelledby="title desc"><title id="title">Illustracy — One image. New layers.</title><desc id="desc">Original illustrative artwork, not an application screenshot. Yeony creative tools.</desc><defs><radialGradient id="cardglow"><stop stop-color="#d2baff" stop-opacity=".22"/><stop offset="1" stop-color="#d2baff" stop-opacity="0"/></radialGradient><clipPath id="bounds"><rect x="0" y="0" width="360" height="220" rx="28" fill="#fff" opacity="1"/></clipPath></defs><g clip-path="url(#bounds)"><rect x="0" y="0" width="360" height="220" rx="24" fill="#192336" opacity="1"/><rect x="1" y="1" width="358" height="218" rx="24" fill="none" opacity="1" stroke="#36554d"/><circle cx="324.0" cy="55.0" r="216.0" fill="url(#cardglow)"/><g aria-label="Illustracy" fill="#effcf4" transform="translate(20 53) scale(0.0170898 -0.0170898)"><path transform="translate(0.00 0)" d="M188 1493H573V0H188Z"/><path transform="translate(674.23 0)" d="M172 1556H530V0H172Z"/><path transform="translate(1288.46 0)" d="M172 1556H530V0H172Z"/><path transform="translate(1902.69 0)" d="M160 436V1120H520V1008Q520 917 519.0 779.5Q518 642 518 596Q518 461 525.0 401.5Q532 342 549 315Q571 280 606.5 261.0Q642 242 688 242Q800 242 864.0 328.0Q928 414 928 567V1120H1286V0H928V162Q847 64 756.5 17.5Q666 -29 557 -29Q363 -29 261.5 90.0Q160 209 160 436Z"/><path transform="translate(3272.91 0)" d="M1047 1085V813Q932 861 825.0 885.0Q718 909 623 909Q521 909 471.5 883.5Q422 858 422 805Q422 762 459.5 739.0Q497 716 594 705L657 696Q932 661 1027.0 581.0Q1122 501 1122 330Q1122 151 990.0 61.0Q858 -29 596 -29Q485 -29 366.5 -11.5Q248 6 123 41V313Q230 261 342.5 235.0Q455 209 571 209Q676 209 729.0 238.0Q782 267 782 324Q782 372 745.5 395.5Q709 419 600 432L537 440Q298 470 202.0 551.0Q106 632 106 797Q106 975 228.0 1061.0Q350 1147 602 1147Q701 1147 810.0 1132.0Q919 1117 1047 1085Z"/><path transform="translate(4404.14 0)" d="M563 1438V1120H932V864H563V389Q563 311 594.0 283.5Q625 256 717 256H901V0H594Q382 0 293.5 88.5Q205 177 205 389V864H27V1120H205V1438Z"/><path transform="translate(5295.37 0)" d="M1004 815Q957 837 910.5 847.5Q864 858 817 858Q679 858 604.5 769.5Q530 681 530 516V0H172V1120H530V936Q599 1046 688.5 1096.5Q778 1147 903 1147Q921 1147 942.0 1145.5Q963 1144 1003 1139Z"/><path transform="translate(6217.60 0)" d="M674 504Q562 504 505.5 466.0Q449 428 449 354Q449 286 494.5 247.5Q540 209 621 209Q722 209 791.0 281.5Q860 354 860 463V504ZM1221 639V0H860V166Q788 64 698.0 17.5Q608 -29 479 -29Q305 -29 196.5 72.5Q88 174 88 336Q88 533 223.5 625.0Q359 717 649 717H860V745Q860 830 793.0 869.5Q726 909 584 909Q469 909 370.0 886.0Q271 863 186 817V1090Q301 1118 417.0 1132.5Q533 1147 649 1147Q952 1147 1086.5 1027.5Q1221 908 1221 639Z"/><path transform="translate(7511.83 0)" d="M1077 1085V793Q1004 843 930.5 867.0Q857 891 778 891Q628 891 544.5 803.5Q461 716 461 559Q461 402 544.5 314.5Q628 227 778 227Q862 227 937.5 252.0Q1013 277 1077 326V33Q993 2 906.5 -13.5Q820 -29 733 -29Q430 -29 259.0 126.5Q88 282 88 559Q88 836 259.0 991.5Q430 1147 733 1147Q821 1147 906.5 1131.5Q992 1116 1077 1085Z"/><path transform="translate(8638.06 0)" d="M25 1120H383L684 360L940 1120H1298L827 -106Q756 -293 661.5 -367.5Q567 -442 412 -442H205V-207H317Q408 -207 449.5 -178.0Q491 -149 514 -74L524 -43Z"/></g><g transform="translate(259 132) scale(0.45)"><g class="float"><path d="M-125 49L0 -14L125 49L0 112Z" fill="#8adac9" fill-opacity="0.08" stroke="#8adac9" stroke-width="2"/><path d="M-94 49L-35 19L-13 45L30 15L89 45L0 92Z" fill="#8adac9" fill-opacity=".17"/><circle cx="-35" cy="30" r="7" fill="#8adac9" opacity=".7"/></g><g class="float2"><path d="M-125 16L0 -47L125 16L0 79Z" fill="#98bcff" fill-opacity="0.12" stroke="#98bcff" stroke-width="2"/><path d="M-94 16L-35 -14L-13 12L30 -18L89 12L0 59Z" fill="#98bcff" fill-opacity=".17"/><circle cx="-35" cy="-3" r="7" fill="#98bcff" opacity=".7"/></g><g class="float"><path d="M-125 -17L0 -80L125 -17L0 46Z" fill="#d0afff" fill-opacity="0.16" stroke="#d0afff" stroke-width="2"/><path d="M-94 -17L-35 -47L-13 -21L30 -51L89 -21L0 26Z" fill="#d0afff" fill-opacity=".17"/><circle cx="-35" cy="-36" r="7" fill="#d0afff" opacity=".7"/></g><g class="float2"><path d="M-125 -50L0 -113L125 -50L0 13Z" fill="#f0e5ff" fill-opacity="0.2" stroke="#f0e5ff" stroke-width="2"/><path d="M-94 -50L-35 -80L-13 -54L30 -84L89 -54L0 -7Z" fill="#f0e5ff" fill-opacity=".17"/><circle cx="-35" cy="-69" r="7" fill="#f0e5ff" opacity=".7"/></g></g><g aria-label="EXPLORE" fill="#d2baff" transform="translate(20 197) scale(0.0058594 -0.0058594)"><path transform="translate(0.00 0)" d="M197 1493H1083V1323H399V881H1053V711H399V170H1102V0H197Z"/><path transform="translate(1335.40 0)" d="M86 1493H303L631 930L965 1493H1182L735 791L1214 0H997L631 643L236 0H18L518 791Z"/><path transform="translate(2670.80 0)" d="M399 1327V766H633Q773 766 851.5 840.0Q930 914 930 1047Q930 1180 852.0 1253.5Q774 1327 633 1327ZM197 1493H633Q883 1493 1012.0 1379.5Q1141 1266 1141 1047Q1141 826 1012.5 713.0Q884 600 633 600H399V0H197Z"/><path transform="translate(4006.20 0)" d="M215 1493H418V170H1139V0H215Z"/><path transform="translate(5341.60 0)" d="M905 745Q905 1074 837.5 1215.0Q770 1356 616 1356Q463 1356 395.5 1215.0Q328 1074 328 745Q328 417 395.5 276.0Q463 135 616 135Q770 135 837.5 275.5Q905 416 905 745ZM1116 745Q1116 355 992.5 163.0Q869 -29 616 -29Q363 -29 240.0 162.0Q117 353 117 745Q117 1136 240.5 1328.0Q364 1520 616 1520Q869 1520 992.5 1328.0Q1116 1136 1116 745Z"/><path transform="translate(6677.00 0)" d="M760 705Q838 685 893.0 629.5Q948 574 1030 408L1233 0H1016L838 377Q761 538 699.5 584.5Q638 631 539 631H346V0H143V1493H559Q805 1493 936.0 1382.0Q1067 1271 1067 1061Q1067 913 986.5 819.5Q906 726 760 705ZM346 1327V797H567Q712 797 783.0 862.0Q854 927 854 1061Q854 1190 778.5 1258.5Q703 1327 559 1327Z"/><path transform="translate(8012.40 0)" d="M197 1493H1083V1323H399V881H1053V711H399V170H1102V0H197Z"/></g><path d="M326 199L339 186M326 186H339V199" fill="none" stroke="#d2baff" stroke-width="2.5" stroke-linecap="round" stroke-linejoin="round"/></g><style>
.orbit{transform-box:fill-box;transform-origin:center;animation:orbit 30s linear infinite}
.float{animation:float 9s ease-in-out infinite}.float2{animation:float 9s ease-in-out -3s infinite}
.pulse{animation:pulse 5s ease-in-out infinite}.sweep{animation:sweep 7s ease-in-out infinite}
.bar{transform-box:fill-box;transform-origin:center;animation:bar 3.3s ease-in-out infinite}
@keyframes orbit{to{transform:rotate(360deg)}}@keyframes float{50%{transform:translateY(-12px)}}
@keyframes pulse{50%{opacity:.45}}@keyframes sweep{50%{transform:translateX(60px)}}
@keyframes bar{50%{transform:scaleY(.5)}}
@media(prefers-reduced-motion:reduce){.orbit,.float,.float2,.pulse,.sweep,.bar{animation:none!important}}
</style></svg>