<svg xmlns="http://www.w3.org/2000/svg" width="588" height="340" viewBox="0 0 588 340" role="img" aria-labelledby="title desc"><title id="title">Photo Score — A fresh look at your photos.</title><desc id="desc">Original illustrative artwork, not an application screenshot. Light, Color, and Detail sliders move in staggered waves. The sun and moon linger overhead, then rapidly set and rise together through sunset and sunrise. A focus pointer visits varied positions with pauses between moves. Reduced motion shows a still daytime view. Yeony creative tools.</desc><defs><radialGradient id="cardglow"><stop stop-color="#b9c7ff" stop-opacity=".22"/><stop offset="1" stop-color="#b9c7ff" stop-opacity="0"/></radialGradient><clipPath id="bounds"><rect x="0" y="0" width="588" height="340" rx="28" fill="#fff" opacity="1"/></clipPath><clipPath id="photo-window"><rect x="-116" y="-70" width="232" height="139" rx="9"/></clipPath><radialGradient id="photo-sun-halo"><stop stop-color="#ffe7a0" stop-opacity=".55"/><stop offset="1" stop-color="#ffe7a0" stop-opacity="0"/></radialGradient><linearGradient id="photo-sky-live" x2="0" y2="1"><stop offset="0" stop-color="#5385b4"><animate attributeName="stop-color" values="#5385b4;#5385b4;#5385b4;#5385b4;#5385b4;#5385b4;#5385b4;#5385b4;#5385b4;#5385b4;#5385b4;#5385b4;#5385b4;#5385b4;#5385b4;#5385b4;#5385b4;#5385b4;#5385b4;#5385b4;#5385b4;#5385b4;#5385b4;#5385b4;#5385b4;#5385b4;#5385b4;#5385b4;#5385b4;#5385b4;#5385b4;#5385b4;#5385b4;#5385b4;#5385b4;#5385b4;#5385b4;#5385b4;#5385b4;#5385b4;#5385b4;#5485b4;#5485b4;#5485b4;#5485b4;#5485b4;#5485b4;#5485b4;#5485b4;#5485b4;#5485b4;#5485b4;#5485b4;#5485b4;#5485b4;#5485b4;#5485b4;#5485b4;#5584b4;#5880b0;#5e6b9b;#7f6ea7;#675c8f;#2e3557;#1a2643;#16233f;#15233e;#15233e;#15233e;#15233e;#15223e;#15223e;#15223e;#15223e;#15223e;#15223e;#15223d;#14223d;#14223d;#14223d;#14223d;#15223e;#15223e;#15223e;#15223e;#15223e;#15223e;#15223e;#15223e;#15223e;#15223e;#15223e;#15223e;#15223e;#15223e;#15223e;#15233e;#15233e;#15233e;#15233e;#15233e;#15233e;#15233e;#15233e;#15233e;#15233e;#15233e;#15233e;#15233e;#15233e;#15233e;#15233e;#15233e;#15233e;#15233e;#15233e;#15233e;#15233e;#15233e;#15233e;#15233e;#15233e;#15233e;#15233e;#15233e;#15233e;#15233f;#16233f;#16233f;#16233f;#16233f;#16233f;#16243f;#16243f;#16243f;#16243f;#16243f;#16243f;#192642;#23304d;#4a5375;#8689b2;#747da5;#5b7eaa;#5686b4;#5485b4;#5385b4;#5385b4;#5385b4;#5385b4;#5385b4;#5385b4;#5385b4;#5385b4;#5385b4;#5385b4;#5385b4;#5385b4;#5385b4;#5385b4;#5385b4" dur="20s" repeatCount="indefinite" /></stop><stop offset="1" stop-color="#c0d9de"><animate attributeName="stop-color" values="#c0d9de;#c0d9de;#c0d9de;#c0d9de;#c0d9de;#c0d9de;#c0d9de;#c0d9de;#c0d9de;#c0d9de;#c0d9de;#c0d9de;#c0d9de;#c0d9de;#c0d9de;#c0d9de;#c0d9de;#c0d9de;#c0d9de;#c0d9de;#c0d9de;#c0d9de;#c0d9dd;#c0d9dd;#c0d9dd;#c0d9dd;#c0d9dd;#c0d9dd;#c0d9dd;#c0d9dd;#c0d9dd;#c0d9dd;#c0d9dd;#c0d9dd;#c0d9dd;#c0d9dd;#c0d9dd;#c0d9dd;#c0d9dd;#c0d8dd;#c0d8dd;#c1d8dd;#c1d8dd;#c1d8dd;#c1d8dd;#c1d8dd;#c1d8dd;#c1d8dd;#c1d8dd;#c1d8dd;#c1d8dd;#c1d8dd;#c1d8dd;#c1d8dd;#c1d8dd;#c1d8dd;#c1d8dd;#c1d8dc;#c2d7da;#c3cfce;#bca49a;#e79c78;#bf8773;#605a69;#3e4a66;#374665;#364665;#354665;#354665;#354665;#354665;#354665;#354565;#354565;#354565;#354565;#354565;#354565;#354565;#354565;#354565;#354665;#354665;#354665;#354665;#354665;#354665;#354665;#354665;#354665;#354665;#354665;#354665;#354665;#354665;#354665;#354665;#354665;#354665;#354665;#354665;#354665;#354665;#354665;#354665;#354665;#354665;#354665;#354665;#354665;#354665;#354665;#354665;#354665;#354665;#364665;#364665;#364665;#364665;#364665;#364665;#364665;#364665;#364665;#364665;#364666;#364666;#364766;#364766;#374766;#374766;#374766;#374766;#374766;#374766;#374766;#374766;#384766;#3c4a67;#4c556a;#8b7c78;#eab98e;#d2b092;#bfc5c0;#c3d8da;#c1d9dd;#c0d9dd;#c0d9dd;#c0d9de;#c0d9de;#c0d9de;#c0d9de;#c0d9de;#c0d9de;#c0d9de;#c0d9de;#c0d9de;#c0d9de;#c0d9de;#c0d9de;#c0d9de" dur="20s" repeatCount="indefinite" /></stop></linearGradient><linearGradient id="photo-sky-still" x2="0" y2="1"><stop offset="0" stop-color="#5385b4"></stop><stop offset="1" stop-color="#c0d9de"></stop></linearGradient></defs><g clip-path="url(#bounds)"><rect x="0" y="0" width="588" height="340" rx="24" fill="#172636" opacity="1"/><rect x="1" y="1" width="586" height="338" rx="24" fill="none" opacity="1" stroke="#36554d"/><circle cx="529.2" cy="85.0" r="352.8" fill="url(#cardglow)"/><rect x="29" y="24" width="8" height="8" rx="2" fill="#b9c7ff" opacity="1"/><g aria-label="YEONY / PHOTO TOOLS" fill="#b9c7ff" transform="translate(48 32) scale(0.0058594 -0.0058594)"><path transform="translate(0.00 0)" d="M37 1493H252L616 834L979 1493H1196L717 670V0H514V670Z"/><path transform="translate(1318.33 0)" d="M197 1493H1083V1323H399V881H1053V711H399V170H1102V0H197Z"/><path transform="translate(2636.67 0)" d="M905 745Q905 1074 837.5 1215.0Q770 1356 616 1356Q463 1356 395.5 1215.0Q328 1074 328 745Q328 417 395.5 276.0Q463 135 616 135Q770 135 837.5 275.5Q905 416 905 745ZM1116 745Q1116 355 992.5 163.0Q869 -29 616 -29Q363 -29 240.0 162.0Q117 353 117 745Q117 1136 240.5 1328.0Q364 1520 616 1520Q869 1520 992.5 1328.0Q1116 1136 1116 745Z"/><path transform="translate(3955.00 0)" d="M139 1493H395L899 264V1493H1094V0H838L334 1229V0H139Z"/><path transform="translate(5273.33 0)" d="M37 1493H252L616 834L979 1493H1196L717 670V0H514V670Z"/><path transform="translate(7910.00 0)" d="M889 1493H1079L293 -190H102Z"/><path transform="translate(10546.67 0)" d="M399 1327V766H633Q773 766 851.5 840.0Q930 914 930 1047Q930 1180 852.0 1253.5Q774 1327 633 1327ZM197 1493H633Q883 1493 1012.0 1379.5Q1141 1266 1141 1047Q1141 826 1012.5 713.0Q884 600 633 600H399V0H197Z"/><path transform="translate(11865.00 0)" d="M137 1493H340V881H893V1493H1096V0H893V711H340V0H137Z"/><path transform="translate(13183.33 0)" d="M905 745Q905 1074 837.5 1215.0Q770 1356 616 1356Q463 1356 395.5 1215.0Q328 1074 328 745Q328 417 395.5 276.0Q463 135 616 135Q770 135 837.5 275.5Q905 416 905 745ZM1116 745Q1116 355 992.5 163.0Q869 -29 616 -29Q363 -29 240.0 162.0Q117 353 117 745Q117 1136 240.5 1328.0Q364 1520 616 1520Q869 1520 992.5 1328.0Q1116 1136 1116 745Z"/><path transform="translate(14501.67 0)" d="M47 1493H1186V1323H719V0H516V1323H47Z"/><path transform="translate(15820.00 0)" d="M905 745Q905 1074 837.5 1215.0Q770 1356 616 1356Q463 1356 395.5 1215.0Q328 1074 328 745Q328 417 395.5 276.0Q463 135 616 135Q770 135 837.5 275.5Q905 416 905 745ZM1116 745Q1116 355 992.5 163.0Q869 -29 616 -29Q363 -29 240.0 162.0Q117 353 117 745Q117 1136 240.5 1328.0Q364 1520 616 1520Q869 1520 992.5 1328.0Q1116 1136 1116 745Z"/><path transform="translate(18456.67 0)" d="M47 1493H1186V1323H719V0H516V1323H47Z"/><path transform="translate(19775.00 0)" d="M905 745Q905 1074 837.5 1215.0Q770 1356 616 1356Q463 1356 395.5 1215.0Q328 1074 328 745Q328 417 395.5 276.0Q463 135 616 135Q770 135 837.5 275.5Q905 416 905 745ZM1116 745Q1116 355 992.5 163.0Q869 -29 616 -29Q363 -29 240.0 162.0Q117 353 117 745Q117 1136 240.5 1328.0Q364 1520 616 1520Q869 1520 992.5 1328.0Q1116 1136 1116 745Z"/><path transform="translate(21093.33 0)" d="M905 745Q905 1074 837.5 1215.0Q770 1356 616 1356Q463 1356 395.5 1215.0Q328 1074 328 745Q328 417 395.5 276.0Q463 135 616 135Q770 135 837.5 275.5Q905 416 905 745ZM1116 745Q1116 355 992.5 163.0Q869 -29 616 -29Q363 -29 240.0 162.0Q117 353 117 745Q117 1136 240.5 1328.0Q364 1520 616 1520Q869 1520 992.5 1328.0Q1116 1136 1116 745Z"/><path transform="translate(22411.67 0)" d="M215 1493H418V170H1139V0H215Z"/><path transform="translate(23730.00 0)" d="M1012 1442V1237Q920 1296 827.5 1326.0Q735 1356 641 1356Q498 1356 415.0 1289.5Q332 1223 332 1110Q332 1011 386.5 959.0Q441 907 590 872L696 848Q906 799 1002.0 694.0Q1098 589 1098 408Q1098 195 966.0 83.0Q834 -29 582 -29Q477 -29 371.0 -6.5Q265 16 158 61V276Q273 203 375.5 169.0Q478 135 582 135Q735 135 820.0 203.5Q905 272 905 395Q905 507 846.5 566.0Q788 625 643 657L535 682Q327 729 233.0 824.0Q139 919 139 1079Q139 1279 273.5 1399.5Q408 1520 631 1520Q717 1520 812.0 1500.5Q907 1481 1012 1442Z"/></g><g aria-label="Photo Score" fill="#effcf4" transform="translate(27 103) scale(0.0234375 -0.0234375)"><path transform="translate(0.00 0)" d="M188 1493H827Q1112 1493 1264.5 1366.5Q1417 1240 1417 1006Q1417 771 1264.5 644.5Q1112 518 827 518H573V0H188ZM573 1214V797H786Q898 797 959.0 851.5Q1020 906 1020 1006Q1020 1106 959.0 1160.0Q898 1214 786 1214Z"/><path transform="translate(1424.20 0)" d="M1298 682V0H938V111V520Q938 667 931.5 722.0Q925 777 909 803Q888 838 852.0 857.5Q816 877 770 877Q658 877 594.0 790.5Q530 704 530 551V0H172V1556H530V956Q611 1054 702.0 1100.5Q793 1147 903 1147Q1097 1147 1197.5 1028.0Q1298 909 1298 682Z"/><path transform="translate(2805.40 0)" d="M705 891Q586 891 523.5 805.5Q461 720 461 559Q461 398 523.5 312.5Q586 227 705 227Q822 227 884.0 312.5Q946 398 946 559Q946 720 884.0 805.5Q822 891 705 891ZM705 1147Q994 1147 1156.5 991.0Q1319 835 1319 559Q1319 283 1156.5 127.0Q994 -29 705 -29Q415 -29 251.5 127.0Q88 283 88 559Q88 835 251.5 991.0Q415 1147 705 1147Z"/><path transform="translate(4135.60 0)" d="M563 1438V1120H932V864H563V389Q563 311 594.0 283.5Q625 256 717 256H901V0H594Q382 0 293.5 88.5Q205 177 205 389V864H27V1120H205V1438Z"/><path transform="translate(5037.80 0)" d="M705 891Q586 891 523.5 805.5Q461 720 461 559Q461 398 523.5 312.5Q586 227 705 227Q822 227 884.0 312.5Q946 398 946 559Q946 720 884.0 805.5Q822 891 705 891ZM705 1147Q994 1147 1156.5 991.0Q1319 835 1319 559Q1319 283 1156.5 127.0Q994 -29 705 -29Q415 -29 251.5 127.0Q88 283 88 559Q88 835 251.5 991.0Q415 1147 705 1147Z"/><path transform="translate(7004.20 0)" d="M1227 1446V1130Q1104 1185 987.0 1213.0Q870 1241 766 1241Q628 1241 562.0 1203.0Q496 1165 496 1085Q496 1025 540.5 991.5Q585 958 702 934L866 901Q1115 851 1220.0 749.0Q1325 647 1325 459Q1325 212 1178.5 91.5Q1032 -29 731 -29Q589 -29 446.0 -2.0Q303 25 160 78V403Q303 327 436.5 288.5Q570 250 694 250Q820 250 887.0 292.0Q954 334 954 412Q954 482 908.5 520.0Q863 558 727 588L578 621Q354 669 250.5 774.0Q147 879 147 1057Q147 1280 291.0 1400.0Q435 1520 705 1520Q828 1520 958.0 1501.5Q1088 1483 1227 1446Z"/><path transform="translate(8402.40 0)" d="M1077 1085V793Q1004 843 930.5 867.0Q857 891 778 891Q628 891 544.5 803.5Q461 716 461 559Q461 402 544.5 314.5Q628 227 778 227Q862 227 937.5 252.0Q1013 277 1077 326V33Q993 2 906.5 -13.5Q820 -29 733 -29Q430 -29 259.0 126.5Q88 282 88 559Q88 836 259.0 991.5Q430 1147 733 1147Q821 1147 906.5 1131.5Q992 1116 1077 1085Z"/><path transform="translate(9539.60 0)" d="M705 891Q586 891 523.5 805.5Q461 720 461 559Q461 398 523.5 312.5Q586 227 705 227Q822 227 884.0 312.5Q946 398 946 559Q946 720 884.0 805.5Q822 891 705 891ZM705 1147Q994 1147 1156.5 991.0Q1319 835 1319 559Q1319 283 1156.5 127.0Q994 -29 705 -29Q415 -29 251.5 127.0Q88 283 88 559Q88 835 251.5 991.0Q415 1147 705 1147Z"/><path transform="translate(10869.80 0)" d="M1004 815Q957 837 910.5 847.5Q864 858 817 858Q679 858 604.5 769.5Q530 681 530 516V0H172V1120H530V936Q599 1046 688.5 1096.5Q778 1147 903 1147Q921 1147 942.0 1145.5Q963 1144 1003 1139Z"/><path transform="translate(11803.00 0)" d="M1290 563V461H453Q466 335 544.0 272.0Q622 209 762 209Q875 209 993.5 242.5Q1112 276 1237 344V68Q1110 20 983.0 -4.5Q856 -29 729 -29Q425 -29 256.5 125.5Q88 280 88 559Q88 833 253.5 990.0Q419 1147 709 1147Q973 1147 1131.5 988.0Q1290 829 1290 563ZM922 682Q922 784 862.5 846.5Q803 909 707 909Q603 909 538.0 850.5Q473 792 457 682Z"/></g><g aria-label="A fresh look at your photos." fill="#c0cee5" transform="translate(31 143) scale(0.0102539 -0.0102539)"><path transform="translate(0.00 0)" d="M700 1294 426 551H975ZM586 1493H815L1384 0H1174L1038 383H365L229 0H16Z"/><path transform="translate(2052.00 0)" d="M760 1556V1403H584Q485 1403 446.5 1363.0Q408 1323 408 1219V1120H711V977H408V0H223V977H47V1120H223V1198Q223 1385 310.0 1470.5Q397 1556 586 1556Z"/><path transform="translate(2773.00 0)" d="M842 948Q811 966 774.5 974.5Q738 983 694 983Q538 983 454.5 881.5Q371 780 371 590V0H186V1120H371V946Q429 1048 522.0 1097.5Q615 1147 748 1147Q767 1147 790.0 1144.5Q813 1142 841 1137Z"/><path transform="translate(3615.00 0)" d="M1151 606V516H305Q317 326 419.5 226.5Q522 127 705 127Q811 127 910.5 153.0Q1010 179 1108 231V57Q1009 15 905.0 -7.0Q801 -29 694 -29Q426 -29 269.5 127.0Q113 283 113 549Q113 824 261.5 985.5Q410 1147 662 1147Q888 1147 1019.5 1001.5Q1151 856 1151 606ZM967 660Q965 811 882.5 901.0Q800 991 664 991Q510 991 417.5 904.0Q325 817 311 659Z"/><path transform="translate(4875.00 0)" d="M907 1087V913Q829 953 745.0 973.0Q661 993 571 993Q434 993 365.5 951.0Q297 909 297 825Q297 761 346.0 724.5Q395 688 543 655L606 641Q802 599 884.5 522.5Q967 446 967 309Q967 153 843.5 62.0Q720 -29 504 -29Q414 -29 316.5 -11.5Q219 6 111 41V231Q213 178 312.0 151.5Q411 125 508 125Q638 125 708.0 169.5Q778 214 778 295Q778 370 727.5 410.0Q677 450 506 487L442 502Q271 538 195.0 612.5Q119 687 119 817Q119 975 231.0 1061.0Q343 1147 549 1147Q651 1147 741.0 1132.0Q831 1117 907 1087Z"/><path transform="translate(5942.00 0)" d="M1124 676V0H940V670Q940 829 878.0 908.0Q816 987 692 987Q543 987 457.0 892.0Q371 797 371 633V0H186V1556H371V946Q437 1047 526.5 1097.0Q616 1147 733 1147Q926 1147 1025.0 1027.5Q1124 908 1124 676Z"/><path transform="translate(7891.00 0)" d="M193 1556H377V0H193Z"/><path transform="translate(8460.00 0)" d="M627 991Q479 991 393.0 875.5Q307 760 307 559Q307 358 392.5 242.5Q478 127 627 127Q774 127 860.0 243.0Q946 359 946 559Q946 758 860.0 874.5Q774 991 627 991ZM627 1147Q867 1147 1004.0 991.0Q1141 835 1141 559Q1141 284 1004.0 127.5Q867 -29 627 -29Q386 -29 249.5 127.5Q113 284 113 559Q113 835 249.5 991.0Q386 1147 627 1147Z"/><path transform="translate(9713.00 0)" d="M627 991Q479 991 393.0 875.5Q307 760 307 559Q307 358 392.5 242.5Q478 127 627 127Q774 127 860.0 243.0Q946 359 946 559Q946 758 860.0 874.5Q774 991 627 991ZM627 1147Q867 1147 1004.0 991.0Q1141 835 1141 559Q1141 284 1004.0 127.5Q867 -29 627 -29Q386 -29 249.5 127.5Q113 284 113 559Q113 835 249.5 991.0Q386 1147 627 1147Z"/><path transform="translate(10966.00 0)" d="M186 1556H371V637L920 1120H1155L561 596L1180 0H940L371 547V0H186Z"/><path transform="translate(12803.00 0)" d="M702 563Q479 563 393.0 512.0Q307 461 307 338Q307 240 371.5 182.5Q436 125 547 125Q700 125 792.5 233.5Q885 342 885 522V563ZM1069 639V0H885V170Q822 68 728.0 19.5Q634 -29 498 -29Q326 -29 224.5 67.5Q123 164 123 326Q123 515 249.5 611.0Q376 707 627 707H885V725Q885 852 801.5 921.5Q718 991 567 991Q471 991 380.0 968.0Q289 945 205 899V1069Q306 1108 401.0 1127.5Q496 1147 586 1147Q829 1147 949.0 1021.0Q1069 895 1069 639Z"/><path transform="translate(14058.00 0)" d="M375 1438V1120H754V977H375V369Q375 232 412.5 193.0Q450 154 565 154H754V0H565Q352 0 271.0 79.5Q190 159 190 369V977H55V1120H190V1438Z"/><path transform="translate(15512.00 0)" d="M659 -104Q581 -304 507.0 -365.0Q433 -426 309 -426H162V-272H270Q346 -272 388.0 -236.0Q430 -200 481 -66L514 18L61 1120H256L606 244L956 1120H1151Z"/><path transform="translate(16724.00 0)" d="M627 991Q479 991 393.0 875.5Q307 760 307 559Q307 358 392.5 242.5Q478 127 627 127Q774 127 860.0 243.0Q946 359 946 559Q946 758 860.0 874.5Q774 991 627 991ZM627 1147Q867 1147 1004.0 991.0Q1141 835 1141 559Q1141 284 1004.0 127.5Q867 -29 627 -29Q386 -29 249.5 127.5Q113 284 113 559Q113 835 249.5 991.0Q386 1147 627 1147Z"/><path transform="translate(17977.00 0)" d="M174 442V1120H358V449Q358 290 420.0 210.5Q482 131 606 131Q755 131 841.5 226.0Q928 321 928 485V1120H1112V0H928V172Q861 70 772.5 20.5Q684 -29 567 -29Q374 -29 274.0 91.0Q174 211 174 442ZM637 1147Z"/><path transform="translate(19275.00 0)" d="M842 948Q811 966 774.5 974.5Q738 983 694 983Q538 983 454.5 881.5Q371 780 371 590V0H186V1120H371V946Q429 1048 522.0 1097.5Q615 1147 748 1147Q767 1147 790.0 1144.5Q813 1142 841 1137Z"/><path transform="translate(20768.00 0)" d="M371 168V-426H186V1120H371V950Q429 1050 517.5 1098.5Q606 1147 729 1147Q933 1147 1060.5 985.0Q1188 823 1188 559Q1188 295 1060.5 133.0Q933 -29 729 -29Q606 -29 517.5 19.5Q429 68 371 168ZM997 559Q997 762 913.5 877.5Q830 993 684 993Q538 993 454.5 877.5Q371 762 371 559Q371 356 454.5 240.5Q538 125 684 125Q830 125 913.5 240.5Q997 356 997 559Z"/><path transform="translate(22068.00 0)" d="M1124 676V0H940V670Q940 829 878.0 908.0Q816 987 692 987Q543 987 457.0 892.0Q371 797 371 633V0H186V1556H371V946Q437 1047 526.5 1097.0Q616 1147 733 1147Q926 1147 1025.0 1027.5Q1124 908 1124 676Z"/><path transform="translate(23366.00 0)" d="M627 991Q479 991 393.0 875.5Q307 760 307 559Q307 358 392.5 242.5Q478 127 627 127Q774 127 860.0 243.0Q946 359 946 559Q946 758 860.0 874.5Q774 991 627 991ZM627 1147Q867 1147 1004.0 991.0Q1141 835 1141 559Q1141 284 1004.0 127.5Q867 -29 627 -29Q386 -29 249.5 127.5Q113 284 113 559Q113 835 249.5 991.0Q386 1147 627 1147Z"/><path transform="translate(24619.00 0)" d="M375 1438V1120H754V977H375V369Q375 232 412.5 193.0Q450 154 565 154H754V0H565Q352 0 271.0 79.5Q190 159 190 369V977H55V1120H190V1438Z"/><path transform="translate(25422.00 0)" d="M627 991Q479 991 393.0 875.5Q307 760 307 559Q307 358 392.5 242.5Q478 127 627 127Q774 127 860.0 243.0Q946 359 946 559Q946 758 860.0 874.5Q774 991 627 991ZM627 1147Q867 1147 1004.0 991.0Q1141 835 1141 559Q1141 284 1004.0 127.5Q867 -29 627 -29Q386 -29 249.5 127.5Q113 284 113 559Q113 835 249.5 991.0Q386 1147 627 1147Z"/><path transform="translate(26675.00 0)" d="M907 1087V913Q829 953 745.0 973.0Q661 993 571 993Q434 993 365.5 951.0Q297 909 297 825Q297 761 346.0 724.5Q395 688 543 655L606 641Q802 599 884.5 522.5Q967 446 967 309Q967 153 843.5 62.0Q720 -29 504 -29Q414 -29 316.5 -11.5Q219 6 111 41V231Q213 178 312.0 151.5Q411 125 508 125Q638 125 708.0 169.5Q778 214 778 295Q778 370 727.5 410.0Q677 450 506 487L442 502Q271 538 195.0 612.5Q119 687 119 817Q119 975 231.0 1061.0Q343 1147 549 1147Q651 1147 741.0 1132.0Q831 1117 907 1087Z"/><path transform="translate(27742.00 0)" d="M219 254H430V0H219Z"/></g><g transform="translate(418 218) scale(.85)"><g class="photo-motion"><g data-photo-scene="live"><g clip-path="url(#photo-window)"><rect x="-117" y="-71" width="234" height="141" fill="url(#photo-sky-live)"/><g data-sky-stars="true" fill="#e1e8ff" opacity="0"><animate attributeName="opacity" values="0;0;0;0;0;0;0;0;0;0;0;0;0;0;0;0;0;0;0;0;0;0;0;0;0;0;0;0;0;0;0;0;0;0;0;0;0;0;0;0;0;0;0;0;0;0;0;0;0;0;0;0;0;0;0;0;0;0;0;0;0;0;0.377;0.988;1;1;1;1;1;1;1;1;1;1;1;1;1;1;1;1;1;1;1;1;1;1;1;1;1;1;1;1;1;1;1;1;1;1;1;1;1;1;1;1;1;1;1;1;1;1;1;1;1;1;1;1;1;1;1;1;1;1;1;1;1;1;1;1;1;1;1;1;1;1;1;1;1;1;1;1;0.773;0.065;0;0;0;0;0;0;0;0;0;0;0;0;0;0;0;0;0;0;0" dur="20s" repeatCount="indefinite" /><circle cx="-85" cy="-49" r="1.2"/><circle cx="-61" cy="-34" r="1"/><circle cx="-23" cy="-54" r="1.1"/><circle cx="29" cy="-48" r="1.4"/><circle cx="81" cy="-50" r="1.1"/><circle cx="64" cy="-14" r="0.9"/><circle cx="-77" cy="2" r="0.85"/></g><g data-celestial="sun" transform="translate(-0 -42)"><animateTransform attributeName="transform" type="translate" values="-0 -42;0.04 -42;0.159 -42;0.353 -41.999;0.62 -41.998;0.956 -41.995;1.36 -41.991;1.827 -41.983;2.355 -41.972;2.941 -41.957;3.582 -41.936;4.275 -41.908;5.017 -41.874;5.806 -41.831;6.637 -41.779;7.508 -41.716;8.416 -41.644;9.357 -41.559;10.33 -41.462;11.329 -41.353;12.354 -41.23;13.399 -41.093;14.462 -40.943;15.541 -40.778;16.631 -40.598;17.73 -40.405;18.834 -40.198;19.941 -39.977;21.047 -39.742;22.15 -39.496;23.246 -39.237;24.333 -38.967;25.407 -38.687;26.466 -38.398;27.506 -38.102;28.526 -37.798;29.523 -37.49;30.493 -37.179;31.435 -36.866;32.345 -36.552;33.222 -36.241;34.063 -35.933;34.865 -35.63;35.627 -35.335;36.346 -35.05;37.02 -34.776;37.647 -34.516;38.224 -34.272;38.75 -34.045;39.222 -33.838;39.639 -33.653;39.997 -33.492;40.296 -33.356;40.532 -33.248;40.704 -33.169;40.809 -33.12;40.844 -33.104;44.885 -31.104;55.294 -24.676;68.6 -12.743;80.464 5.1;86.684 27.526;84.676 51.449;74.598 73.107;59.292 89.617;43.08 100.029;30.253 105.257;24.168 107.009;23.718 107.121;22.722 107.362;21.103 107.73;18.989 108.168;16.507 108.619;13.792 109.039;10.981 109.392;8.213 109.661;5.631 109.841;3.377 109.943;1.594 109.987;0.422 109.999;0 110;-0.04 110;-0.159 110;-0.353 109.999;-0.62 109.998;-0.956 109.995;-1.36 109.991;-1.827 109.983;-2.355 109.972;-2.941 109.957;-3.582 109.936;-4.275 109.908;-5.017 109.874;-5.806 109.831;-6.637 109.779;-7.508 109.716;-8.416 109.644;-9.357 109.559;-10.33 109.462;-11.329 109.353;-12.354 109.23;-13.399 109.093;-14.462 108.943;-15.541 108.778;-16.631 108.598;-17.73 108.405;-18.834 108.198;-19.941 107.977;-21.047 107.742;-22.15 107.496;-23.246 107.237;-24.333 106.967;-25.407 106.687;-26.466 106.398;-27.506 106.102;-28.526 105.798;-29.523 105.49;-30.493 105.179;-31.435 104.866;-32.345 104.552;-33.222 104.241;-34.063 103.933;-34.865 103.63;-35.627 103.335;-36.346 103.05;-37.02 102.776;-37.647 102.516;-38.224 102.272;-38.75 102.045;-39.222 101.838;-39.639 101.653;-39.997 101.492;-40.296 101.356;-40.532 101.248;-40.704 101.169;-40.809 101.12;-40.844 101.104;-44.885 99.104;-55.294 92.676;-68.6 80.743;-80.464 62.9;-86.684 40.474;-84.676 16.551;-74.598 -5.107;-59.292 -21.617;-43.08 -32.029;-30.253 -37.257;-24.168 -39.009;-23.718 -39.121;-22.722 -39.362;-21.103 -39.73;-18.989 -40.168;-16.507 -40.619;-13.792 -41.039;-10.981 -41.392;-8.213 -41.661;-5.631 -41.841;-3.377 -41.943;-1.594 -41.987;-0.422 -41.999;-0 -42" dur="20s" repeatCount="indefinite" /><circle r="28" fill="url(#photo-sun-halo)"/><circle r="13" fill="#fff7c6"><animate attributeName="fill" values="#fff7c6;#fff7c6;#fff7c6;#fff7c6;#fff7c6;#fff7c6;#fff7c6;#fff7c6;#fff7c6;#fff7c6;#fff7c6;#fff7c6;#fff7c6;#fff7c6;#fff7c6;#fff7c6;#fff7c6;#fff7c6;#fff7c6;#fff7c6;#fff7c6;#fff7c6;#fff7c5;#fff7c5;#fff7c5;#fff7c5;#fff6c5;#fff6c5;#fff6c5;#fff6c5;#fff6c5;#fff6c4;#fff6c4;#fff6c4;#fff6c4;#fff6c4;#fff6c4;#fff6c4;#fff5c3;#fff5c3;#fff5c3;#fff5c3;#fff5c3;#fff5c3;#fff5c3;#fff5c2;#fff5c2;#fff5c2;#fff5c2;#fff5c2;#fff4c2;#fff4c2;#fff4c2;#fff4c2;#fff4c2;#fff4c2;#fff4c2;#fff4c1;#fff2bd;#ffeeb7;#ffe9ae;#ffe2a3;#ffe0a0;#ffe0a0;#ffe0a0;#ffe0a0;#ffe0a0;#ffe0a0;#ffe0a0;#ffe0a0;#ffe0a0;#ffe0a0;#ffe0a0;#ffe0a0;#ffe0a0;#ffe0a0;#ffe0a0;#ffe0a0;#ffe0a0;#ffe0a0;#ffe0a0;#ffe0a0;#ffe0a0;#ffe0a0;#ffe0a0;#ffe0a0;#ffe0a0;#ffe0a0;#ffe0a0;#ffe0a0;#ffe0a0;#ffe0a0;#ffe0a0;#ffe0a0;#ffe0a0;#ffe0a0;#ffe0a0;#ffe0a0;#ffe0a0;#ffe0a0;#ffe0a0;#ffe0a0;#ffe0a0;#ffe0a0;#ffe0a0;#ffe0a0;#ffe0a0;#ffe0a0;#ffe0a0;#ffe0a0;#ffe0a0;#ffe0a0;#ffe0a0;#ffe0a0;#ffe0a0;#ffe0a0;#ffe0a0;#ffe0a0;#ffe0a0;#ffe0a0;#ffe0a0;#ffe0a0;#ffe0a0;#ffe0a0;#ffe0a0;#ffe0a0;#ffe0a0;#ffe0a0;#ffe0a0;#ffe0a0;#ffe0a0;#ffe0a0;#ffe0a0;#ffe0a0;#ffe0a0;#ffe0a0;#ffe0a0;#ffe0a0;#ffe0a0;#ffe0a0;#ffe0a0;#ffe0a0;#ffe5a9;#ffecb4;#fff1bc;#fff4c1;#fff6c4;#fff6c5;#fff6c5;#fff6c5;#fff6c5;#fff6c5;#fff7c5;#fff7c6;#fff7c6;#fff7c6;#fff7c6;#fff7c6;#fff7c6;#fff7c6;#fff7c6" dur="20s" repeatCount="indefinite" /></circle></g><g data-celestial="moon" transform="translate(0 110)"><animateTransform attributeName="transform" type="translate" values="0 110;-0.04 110;-0.159 110;-0.353 109.999;-0.62 109.998;-0.956 109.995;-1.36 109.991;-1.827 109.983;-2.355 109.972;-2.941 109.957;-3.582 109.936;-4.275 109.908;-5.017 109.874;-5.806 109.831;-6.637 109.779;-7.508 109.716;-8.416 109.644;-9.357 109.559;-10.33 109.462;-11.329 109.353;-12.354 109.23;-13.399 109.093;-14.462 108.943;-15.541 108.778;-16.631 108.598;-17.73 108.405;-18.834 108.198;-19.941 107.977;-21.047 107.742;-22.15 107.496;-23.246 107.237;-24.333 106.967;-25.407 106.687;-26.466 106.398;-27.506 106.102;-28.526 105.798;-29.523 105.49;-30.493 105.179;-31.435 104.866;-32.345 104.552;-33.222 104.241;-34.063 103.933;-34.865 103.63;-35.627 103.335;-36.346 103.05;-37.02 102.776;-37.647 102.516;-38.224 102.272;-38.75 102.045;-39.222 101.838;-39.639 101.653;-39.997 101.492;-40.296 101.356;-40.532 101.248;-40.704 101.169;-40.809 101.12;-40.844 101.104;-44.885 99.104;-55.294 92.676;-68.6 80.743;-80.464 62.9;-86.684 40.474;-84.676 16.551;-74.598 -5.107;-59.292 -21.617;-43.08 -32.029;-30.253 -37.257;-24.168 -39.009;-23.718 -39.121;-22.722 -39.362;-21.103 -39.73;-18.989 -40.168;-16.507 -40.619;-13.792 -41.039;-10.981 -41.392;-8.213 -41.661;-5.631 -41.841;-3.377 -41.943;-1.594 -41.987;-0.422 -41.999;-0 -42;0.04 -42;0.159 -42;0.353 -41.999;0.62 -41.998;0.956 -41.995;1.36 -41.991;1.827 -41.983;2.355 -41.972;2.941 -41.957;3.582 -41.936;4.275 -41.908;5.017 -41.874;5.806 -41.831;6.637 -41.779;7.508 -41.716;8.416 -41.644;9.357 -41.559;10.33 -41.462;11.329 -41.353;12.354 -41.23;13.399 -41.093;14.462 -40.943;15.541 -40.778;16.631 -40.598;17.73 -40.405;18.834 -40.198;19.941 -39.977;21.047 -39.742;22.15 -39.496;23.246 -39.237;24.333 -38.967;25.407 -38.687;26.466 -38.398;27.506 -38.102;28.526 -37.798;29.523 -37.49;30.493 -37.179;31.435 -36.866;32.345 -36.552;33.222 -36.241;34.063 -35.933;34.865 -35.63;35.627 -35.335;36.346 -35.05;37.02 -34.776;37.647 -34.516;38.224 -34.272;38.75 -34.045;39.222 -33.838;39.639 -33.653;39.997 -33.492;40.296 -33.356;40.532 -33.248;40.704 -33.169;40.809 -33.12;40.844 -33.104;44.885 -31.104;55.294 -24.676;68.6 -12.743;80.464 5.1;86.684 27.526;84.676 51.449;74.598 73.107;59.292 89.617;43.08 100.029;30.253 105.257;24.168 107.009;23.718 107.121;22.722 107.362;21.103 107.73;18.989 108.168;16.507 108.619;13.792 109.039;10.981 109.392;8.213 109.661;5.631 109.841;3.377 109.943;1.594 109.987;0.422 109.999;0 110" dur="20s" repeatCount="indefinite" /><path d="M8 -13A15.3 15.3 0 1 0 8 13A13.5 13.5 0 0 1 8 -13Z" fill="#edf0ff"/><circle cx="-8" cy="4" r="2" fill="#c0cceb" opacity=".6"/></g><path d="M-103 56L-49 -23L-7 20L37 -36L104 56Z" fill="#55799b" stroke="#b8c8ef" stroke-opacity=".65" stroke-width="1.6"><animate attributeName="fill" values="#55799b;#55799b;#55799b;#55799b;#55799b;#55799b;#55799b;#55799b;#55799b;#55799b;#55799b;#55799b;#55799b;#55799b;#55799b;#55799b;#55799b;#55799b;#55799b;#55799b;#55799b;#55799b;#55799b;#55799b;#55799b;#55799b;#55799b;#55799b;#55799b;#55799b;#55799b;#55799b;#55799b;#55799b;#55799b;#55799b;#55799b;#55799b;#55799b;#55799b;#55799b;#55799b;#55799b;#55799b;#55799b;#55799b;#55799b;#55799b;#55799b;#55799b;#55799b;#55799b;#55799b;#55799b;#55799b;#55799b;#55799b;#55799b;#56789a;#577496;#545e80;#5d4e6f;#4f4666;#353b59;#2c3754;#2a3653;#293653;#293653;#293653;#293653;#293653;#293653;#293653;#293653;#293653;#293653;#293653;#293653;#293653;#293653;#293653;#293653;#293653;#293653;#293653;#293653;#293653;#293653;#293653;#293653;#293653;#293653;#293653;#293653;#293653;#293653;#293653;#293653;#293653;#293653;#293653;#293653;#293653;#293653;#293653;#293653;#293653;#293653;#293653;#293653;#293653;#293653;#293653;#293653;#2a3653;#2a3653;#2a3653;#2a3653;#2a3653;#2a3653;#2a3653;#2a3653;#2a3653;#2a3653;#2a3653;#2a3753;#2a3754;#2a3754;#2a3754;#2a3754;#2a3754;#2a3754;#2a3754;#2a3754;#2a3754;#2a3754;#2a3754;#2a3754;#2c3855;#323c58;#474a66;#695f7b;#636380;#597192;#57799b;#56799b;#55799b;#55799b;#55799b;#55799b;#55799b;#55799b;#55799b;#55799b;#55799b;#55799b;#55799b;#55799b;#55799b;#55799b;#55799b" dur="20s" repeatCount="indefinite" /></path><path d="M-117 61L-52 36L5 57L69 21L117 48V72H-117Z" fill="#142840" opacity=".42"/><g fill="none" stroke="#d9e4ff" stroke-opacity=".35" stroke-width=".8"><path d="M-39 -58V58"/><path d="M39 -58V58"/><path d="M-104 -23H104"/><path d="M-104 23H104"/></g><g data-photo-pointer="focus" transform="translate(-40 -23)"><animateTransform attributeName="transform" type="translate" values="-40 -23;-40 -23;31.153 6.81;31.153 6.81;71.391 2.885;71.391 2.885;-79.995 -30.291;-79.995 -30.291;-63.234 1.683;-63.234 1.683;66.366 -9.971;66.366 -9.971;26.647 28.996;26.647 28.996;-75.404 1.751;-75.404 1.751;3.004 33.343;3.004 33.343;-80.315 -38.498;-80.315 -38.498;55.87 -14.611;55.87 -14.611;24.736 -38.705;24.736 -38.705;-44.319 -40.801;-44.319 -40.801;20.534 -39.56;20.534 -39.56;31.03 40.556;31.03 40.556;-51.594 -2.241;-51.594 -2.241;34.504 1.159;34.504 1.159;-12.483 37.858;-12.483 37.858;48.152 32.9;48.152 32.9;-23.537 1.815;-23.537 1.815;-64.712 8.991;-64.712 8.991;-10.323 -24.65;-10.323 -24.65;-11.133 41.207;-11.133 41.207;-30.56 -13.626;-30.56 -13.626;-40 -23" dur="56.6544s" repeatCount="indefinite" calcMode="spline" keyTimes="0.0000000;0.0267705;0.0343026;0.0697624;0.0809848;0.1120034;0.1216469;0.1630465;0.1750835;0.2094362;0.2171937;0.2585478;0.2687259;0.3066494;0.3142121;0.3553341;0.3664502;0.3941450;0.4048119;0.4284764;0.4393821;0.4645714;0.4720291;0.5109061;0.5217583;0.5493555;0.5616663;0.5886968;0.5962261;0.6211328;0.6324919;0.6576897;0.6677905;0.7052549;0.7129022;0.7522418;0.7642522;0.7940069;0.8051551;0.8330694;0.8421630;0.8718868;0.8837022;0.9077215;0.9198495;0.9482711;0.9555298;0.9892750;1.0000000" keySplines="0 0 1 1;.4 0 .2 1;0 0 1 1;.4 0 .2 1;0 0 1 1;.4 0 .2 1;0 0 1 1;.4 0 .2 1;0 0 1 1;.4 0 .2 1;0 0 1 1;.4 0 .2 1;0 0 1 1;.4 0 .2 1;0 0 1 1;.4 0 .2 1;0 0 1 1;.4 0 .2 1;0 0 1 1;.4 0 .2 1;0 0 1 1;.4 0 .2 1;0 0 1 1;.4 0 .2 1;0 0 1 1;.4 0 .2 1;0 0 1 1;.4 0 .2 1;0 0 1 1;.4 0 .2 1;0 0 1 1;.4 0 .2 1;0 0 1 1;.4 0 .2 1;0 0 1 1;.4 0 .2 1;0 0 1 1;.4 0 .2 1;0 0 1 1;.4 0 .2 1;0 0 1 1;.4 0 .2 1;0 0 1 1;.4 0 .2 1;0 0 1 1;.4 0 .2 1;0 0 1 1;.4 0 .2 1"/><g fill="none" stroke="#172e39" stroke-width="4.5" stroke-linecap="round" opacity=".65"><circle r="8"/><path d="M-14 0H-5M5 0H14M0 -14V-5M0 5V14"/></g><g fill="none" stroke="#e2ffab" stroke-width="1.8" stroke-linecap="round"><circle r="8"/><path d="M-14 0H-5M5 0H14M0 -14V-5M0 5V14"/></g><circle r="1.6" fill="#f3ffdf"/></g></g><rect x="-117" y="-71" width="234" height="141" rx="10" fill="none" stroke="#8dadf2"/></g></g><g class="photo-still"><g data-photo-scene="still"><g clip-path="url(#photo-window)"><rect x="-117" y="-71" width="234" height="141" fill="url(#photo-sky-still)"/><g data-sky-stars="true" fill="#e1e8ff" opacity="0"><circle cx="-85" cy="-49" r="1.2"/><circle cx="-61" cy="-34" r="1"/><circle cx="-23" cy="-54" r="1.1"/><circle cx="29" cy="-48" r="1.4"/><circle cx="81" cy="-50" r="1.1"/><circle cx="64" cy="-14" r="0.9"/><circle cx="-77" cy="2" r="0.85"/></g><g data-celestial="sun" transform="translate(-0 -42)"><circle r="28" fill="url(#photo-sun-halo)"/><circle r="13" fill="#fff7c6"></circle></g><g data-celestial="moon" transform="translate(0 110)"><path d="M8 -13A15.3 15.3 0 1 0 8 13A13.5 13.5 0 0 1 8 -13Z" fill="#edf0ff"/><circle cx="-8" cy="4" r="2" fill="#c0cceb" opacity=".6"/></g><path d="M-103 56L-49 -23L-7 20L37 -36L104 56Z" fill="#55799b" stroke="#b8c8ef" stroke-opacity=".65" stroke-width="1.6"></path><path d="M-117 61L-52 36L5 57L69 21L117 48V72H-117Z" fill="#142840" opacity=".42"/><g fill="none" stroke="#d9e4ff" stroke-opacity=".35" stroke-width=".8"><path d="M-39 -58V58"/><path d="M39 -58V58"/><path d="M-104 -23H104"/><path d="M-104 23H104"/></g><g data-photo-pointer="focus" transform="translate(-40 -23)"><g fill="none" stroke="#172e39" stroke-width="4.5" stroke-linecap="round" opacity=".65"><circle r="8"/><path d="M-14 0H-5M5 0H14M0 -14V-5M0 5V14"/></g><g fill="none" stroke="#e2ffab" stroke-width="1.8" stroke-linecap="round"><circle r="8"/><path d="M-14 0H-5M5 0H14M0 -14V-5M0 5V14"/></g><circle r="1.6" fill="#f3ffdf"/></g></g><rect x="-117" y="-71" width="234" height="141" rx="10" fill="none" stroke="#8dadf2"/></g></g></g><g aria-label="LIGHT" fill="#b9c7ff" transform="translate(32 194) scale(0.0058594 -0.0058594)"><path transform="translate(0.00 0)" d="M215 1493H418V170H1139V0H215Z"/><path transform="translate(1369.53 0)" d="M201 1493H1030V1323H717V170H1030V0H201V170H514V1323H201Z"/><path transform="translate(2739.07 0)" d="M1104 123Q1023 48 921.5 9.5Q820 -29 702 -29Q418 -29 260.0 174.5Q102 378 102 745Q102 1111 262.0 1315.5Q422 1520 707 1520Q801 1520 887.0 1493.5Q973 1467 1053 1413V1206Q972 1283 887.0 1319.5Q802 1356 707 1356Q510 1356 411.5 1203.5Q313 1051 313 745Q313 434 408.5 284.5Q504 135 702 135Q769 135 819.5 150.5Q870 166 911 199V600H694V766H1104Z"/><path transform="translate(4108.60 0)" d="M137 1493H340V881H893V1493H1096V0H893V711H340V0H137Z"/><path transform="translate(5478.13 0)" d="M47 1493H1186V1323H719V0H516V1323H47Z"/></g><g class="photo-motion"><g data-photo-slider="light"><rect x="99" y="185" width="176" height="6" rx="3" fill="#a4b9df" opacity=".17"/><path d="M187 183V193" stroke="#a9bbdc" stroke-opacity=".4" stroke-width=".8"/><rect x="99" y="185" width="144.320" height="6" rx="3" fill="#c2d4ff" opacity=".78"><animate attributeName="width" values="144.32;144.901;145.396;145.803;146.117;146.336;146.457;146.476;146.391;146.2;145.901;145.492;144.973;144.341;143.596;142.739;141.768;140.686;139.492;138.188;136.775;135.256;133.633;131.909;130.087;128.171;126.165;124.072;121.898;119.648;117.326;114.939;112.491;109.99;107.442;104.852;102.227;99.575;96.902;94.214;91.52;88.826;86.138;83.465;80.813;78.188;75.598;73.05;70.549;68.101;65.714;63.392;61.142;58.968;56.875;54.869;52.953;51.131;49.407;47.784;46.265;44.852;43.548;42.354;41.272;40.301;39.444;38.699;38.067;37.548;37.139;36.84;36.649;36.564;36.583;36.704;36.923;37.237;37.644;38.139;38.72;39.382;40.122;40.935;41.817;42.765;43.774;44.841;45.959;47.127;48.339;49.592;50.882;52.205;53.557;54.936;56.336;57.756;59.193;60.643;62.105;63.575;65.052;66.533;68.017;69.503;70.989;72.474;73.957;75.437;76.915;78.389;79.859;81.326;82.79;84.25;85.708;87.163;88.616;90.068;91.52;92.972;94.424;95.877;97.332;98.79;100.25;101.714;103.181;104.651;106.125;107.603;109.083;110.566;112.051;113.537;115.023;116.507;117.988;119.465;120.935;122.397;123.847;125.284;126.704;128.104;129.483;130.835;132.158;133.448;134.701;135.913;137.081;138.199;139.266;140.275;141.223;142.105;142.918;143.658;144.32" dur="20s" repeatCount="indefinite" /></rect><circle cx="243.320" cy="188" r="4.4" fill="#c2d4ff" stroke="#263c51" stroke-width="1.3"><animate attributeName="cx" values="243.32;243.901;244.396;244.803;245.117;245.336;245.457;245.476;245.391;245.2;244.901;244.492;243.973;243.341;242.596;241.739;240.768;239.686;238.492;237.188;235.775;234.256;232.633;230.909;229.087;227.171;225.165;223.072;220.898;218.648;216.326;213.939;211.491;208.99;206.442;203.852;201.227;198.575;195.902;193.214;190.52;187.826;185.138;182.465;179.813;177.188;174.598;172.05;169.549;167.101;164.714;162.392;160.142;157.968;155.875;153.869;151.953;150.131;148.407;146.784;145.265;143.852;142.548;141.354;140.272;139.301;138.444;137.699;137.067;136.548;136.139;135.84;135.649;135.564;135.583;135.704;135.923;136.237;136.644;137.139;137.72;138.382;139.122;139.935;140.817;141.765;142.774;143.841;144.959;146.127;147.339;148.592;149.882;151.205;152.557;153.936;155.336;156.756;158.193;159.643;161.105;162.575;164.052;165.533;167.017;168.503;169.989;171.474;172.957;174.437;175.915;177.389;178.859;180.326;181.79;183.25;184.708;186.163;187.616;189.068;190.52;191.972;193.424;194.877;196.332;197.79;199.25;200.714;202.181;203.651;205.125;206.603;208.083;209.566;211.051;212.537;214.023;215.507;216.988;218.465;219.935;221.397;222.847;224.284;225.704;227.104;228.483;229.835;231.158;232.448;233.701;234.913;236.081;237.199;238.266;239.275;240.223;241.105;241.918;242.658;243.32" dur="20s" repeatCount="indefinite" /></circle></g></g><g class="photo-still"><g data-photo-slider="light"><rect x="99" y="185" width="176" height="6" rx="3" fill="#a4b9df" opacity=".17"/><path d="M187 183V193" stroke="#a9bbdc" stroke-opacity=".4" stroke-width=".8"/><rect x="99" y="185" width="144.320" height="6" rx="3" fill="#c2d4ff" opacity=".78"></rect><circle cx="243.320" cy="188" r="4.4" fill="#c2d4ff" stroke="#263c51" stroke-width="1.3"></circle></g></g><g aria-label="COLOR" fill="#b9c7ff" transform="translate(32 229) scale(0.0058594 -0.0058594)"><path transform="translate(0.00 0)" d="M1073 53Q996 12 915.0 -8.5Q834 -29 743 -29Q456 -29 297.5 174.0Q139 377 139 745Q139 1111 298.5 1315.5Q458 1520 743 1520Q834 1520 915.0 1499.5Q996 1479 1073 1438V1231Q999 1292 914.0 1324.0Q829 1356 743 1356Q546 1356 448.0 1204.0Q350 1052 350 745Q350 439 448.0 287.0Q546 135 743 135Q831 135 915.5 167.0Q1000 199 1073 260Z"/><path transform="translate(1369.53 0)" d="M905 745Q905 1074 837.5 1215.0Q770 1356 616 1356Q463 1356 395.5 1215.0Q328 1074 328 745Q328 417 395.5 276.0Q463 135 616 135Q770 135 837.5 275.5Q905 416 905 745ZM1116 745Q1116 355 992.5 163.0Q869 -29 616 -29Q363 -29 240.0 162.0Q117 353 117 745Q117 1136 240.5 1328.0Q364 1520 616 1520Q869 1520 992.5 1328.0Q1116 1136 1116 745Z"/><path transform="translate(2739.07 0)" d="M215 1493H418V170H1139V0H215Z"/><path transform="translate(4108.60 0)" d="M905 745Q905 1074 837.5 1215.0Q770 1356 616 1356Q463 1356 395.5 1215.0Q328 1074 328 745Q328 417 395.5 276.0Q463 135 616 135Q770 135 837.5 275.5Q905 416 905 745ZM1116 745Q1116 355 992.5 163.0Q869 -29 616 -29Q363 -29 240.0 162.0Q117 353 117 745Q117 1136 240.5 1328.0Q364 1520 616 1520Q869 1520 992.5 1328.0Q1116 1136 1116 745Z"/><path transform="translate(5478.13 0)" d="M760 705Q838 685 893.0 629.5Q948 574 1030 408L1233 0H1016L838 377Q761 538 699.5 584.5Q638 631 539 631H346V0H143V1493H559Q805 1493 936.0 1382.0Q1067 1271 1067 1061Q1067 913 986.5 819.5Q906 726 760 705ZM346 1327V797H567Q712 797 783.0 862.0Q854 927 854 1061Q854 1190 778.5 1258.5Q703 1327 559 1327Z"/></g><g class="photo-motion"><g data-photo-slider="color"><rect x="99" y="220" width="176" height="6" rx="3" fill="#a4b9df" opacity=".17"/><path d="M187 218V228" stroke="#a9bbdc" stroke-opacity=".4" stroke-width=".8"/><rect x="99" y="220" width="120.348" height="6" rx="3" fill="#d9bdff" opacity=".78"><animate attributeName="width" values="120.348;121.813;123.268;124.711;126.138;127.547;128.934;130.297;131.632;132.936;134.204;135.433;136.619;137.758;138.846;139.878;140.851;141.76;142.602;143.371;144.065;144.678;145.208;145.651;146.003;146.26;146.421;146.481;146.438;146.289;146.034;145.669;145.194;144.607;143.908;143.095;142.17;141.132;139.983;138.723;137.353;135.876;134.295;132.611;130.828;128.949;126.978;124.919;122.777;120.557;118.263;115.901;113.477;110.997;108.466;105.892;103.281;100.639;97.973;95.29;92.598;89.903;87.212;84.532;81.871;79.234;76.63;74.064;71.543;69.073;66.661;64.313;62.033;59.828;57.702;55.661;53.708;51.848;50.084;48.421;46.86;45.404;44.057;42.818;41.691;40.676;39.773;38.984;38.307;37.742;37.289;36.946;36.712;36.585;36.563;36.644;36.823;37.1;37.47;37.931;38.478;39.108;39.817;40.601;41.456;42.379;43.364;44.408;45.506;46.654;47.849;49.087;50.362;51.672;53.013;54.381;55.773;57.186;58.617;60.062;61.519;62.986;64.46;65.94;67.423;68.909;70.395;71.88;73.364;74.845;76.324;77.799;79.271;80.74;82.205;83.666;85.125;86.581;88.035;89.488;90.939;92.391;93.843;95.296;96.75;98.207;99.666;101.128;102.594;104.063;105.535;107.011;108.491;109.973;111.457;112.943;114.429;115.914;117.396;118.875;120.348" dur="20s" repeatCount="indefinite" /></rect><circle cx="219.348" cy="223" r="4.4" fill="#d9bdff" stroke="#263c51" stroke-width="1.3"><animate attributeName="cx" values="219.348;220.813;222.268;223.711;225.138;226.547;227.934;229.297;230.632;231.936;233.204;234.433;235.619;236.758;237.846;238.878;239.851;240.76;241.602;242.371;243.065;243.678;244.208;244.651;245.003;245.26;245.421;245.481;245.438;245.289;245.034;244.669;244.194;243.607;242.908;242.095;241.17;240.132;238.983;237.723;236.353;234.876;233.295;231.611;229.828;227.949;225.978;223.919;221.777;219.557;217.263;214.901;212.477;209.997;207.466;204.892;202.281;199.639;196.973;194.29;191.598;188.903;186.212;183.532;180.871;178.234;175.63;173.064;170.543;168.073;165.661;163.313;161.033;158.828;156.702;154.661;152.708;150.848;149.084;147.421;145.86;144.404;143.057;141.818;140.691;139.676;138.773;137.984;137.307;136.742;136.289;135.946;135.712;135.585;135.563;135.644;135.823;136.1;136.47;136.931;137.478;138.108;138.817;139.601;140.456;141.379;142.364;143.408;144.506;145.654;146.849;148.087;149.362;150.672;152.013;153.381;154.773;156.186;157.617;159.062;160.519;161.986;163.46;164.94;166.423;167.909;169.395;170.88;172.364;173.845;175.324;176.799;178.271;179.74;181.205;182.666;184.125;185.581;187.035;188.488;189.939;191.391;192.843;194.296;195.75;197.207;198.666;200.128;201.594;203.063;204.535;206.011;207.491;208.973;210.457;211.943;213.429;214.914;216.396;217.875;219.348" dur="20s" repeatCount="indefinite" /></circle></g></g><g class="photo-still"><g data-photo-slider="color"><rect x="99" y="220" width="176" height="6" rx="3" fill="#a4b9df" opacity=".17"/><path d="M187 218V228" stroke="#a9bbdc" stroke-opacity=".4" stroke-width=".8"/><rect x="99" y="220" width="120.348" height="6" rx="3" fill="#d9bdff" opacity=".78"></rect><circle cx="219.348" cy="223" r="4.4" fill="#d9bdff" stroke="#263c51" stroke-width="1.3"></circle></g></g><g aria-label="DETAIL" fill="#b9c7ff" transform="translate(32 264) scale(0.0058594 -0.0058594)"><path transform="translate(0.00 0)" d="M436 166Q691 166 792.0 291.5Q893 417 893 745Q893 1076 792.5 1201.5Q692 1327 436 1327H340V166ZM440 1493Q782 1493 944.0 1311.0Q1106 1129 1106 745Q1106 363 944.0 181.5Q782 0 440 0H137V1493Z"/><path transform="translate(1369.53 0)" d="M197 1493H1083V1323H399V881H1053V711H399V170H1102V0H197Z"/><path transform="translate(2739.07 0)" d="M47 1493H1186V1323H719V0H516V1323H47Z"/><path transform="translate(4108.60 0)" d="M616 1315 403 551H829ZM494 1493H739L1196 0H987L877 389H354L246 0H37Z"/><path transform="translate(5478.13 0)" d="M201 1493H1030V1323H717V170H1030V0H201V170H514V1323H201Z"/><path transform="translate(6847.67 0)" d="M215 1493H418V170H1139V0H215Z"/></g><g class="photo-motion"><g data-photo-slider="detail"><rect x="99" y="255" width="176" height="6" rx="3" fill="#a4b9df" opacity=".17"/><path d="M187 253V263" stroke="#a9bbdc" stroke-opacity=".4" stroke-width=".8"/><rect x="99" y="255" width="90.359" height="6" rx="3" fill="#a6e5dd" opacity=".78"><animate attributeName="width" values="90.359;91.81;93.262;94.714;96.168;97.624;99.082;100.543;102.007;103.475;104.946;106.421;107.899;109.38;110.863;112.348;113.834;115.32;116.804;118.284;119.76;121.228;122.688;124.135;125.569;126.986;128.382;129.755;131.102;132.418;133.701;134.946;136.15;137.308;138.417;139.472;140.469;141.404;142.273;143.072;143.797;144.443;145.007;145.485;145.873;146.169;146.368;146.469;146.467;146.361;146.149;145.828;145.397;144.855;144.201;143.434;142.554;141.561;140.456;139.24;137.914;136.48;134.94;133.297;131.553;129.712;127.777;125.753;123.644;121.454;119.189;116.854;114.454;111.995;109.484;106.927;104.329;101.699;99.042;96.365;93.676;90.981;88.287;85.602;82.933;80.286;77.667;75.085;72.546;70.055;67.619;65.244;62.936;60.701;58.543;56.467;54.478;52.581;50.778;49.074;47.472;45.974;44.583;43.3;42.129;41.068;40.121;39.286;38.564;37.955;37.457;37.07;36.793;36.624;36.56;36.599;36.74;36.978;37.311;37.736;38.249;38.846;39.524;40.279;41.106;42.002;42.962;43.983;45.06;46.189;47.366;48.587;49.848;51.144;52.473;53.831;55.214;56.619;58.043;59.482;60.935;62.398;63.87;65.348;66.83;68.314;69.8;71.286;72.77;74.253;75.733;77.21;78.683;80.153;81.619;83.082;84.542;85.999;87.454;88.907;90.359" dur="20s" repeatCount="indefinite" /></rect><circle cx="189.359" cy="258" r="4.4" fill="#a6e5dd" stroke="#263c51" stroke-width="1.3"><animate attributeName="cx" values="189.359;190.81;192.262;193.714;195.168;196.624;198.082;199.543;201.007;202.475;203.946;205.421;206.899;208.38;209.863;211.348;212.834;214.32;215.804;217.284;218.76;220.228;221.688;223.135;224.569;225.986;227.382;228.755;230.102;231.418;232.701;233.946;235.15;236.308;237.417;238.472;239.469;240.404;241.273;242.072;242.797;243.443;244.007;244.485;244.873;245.169;245.368;245.469;245.467;245.361;245.149;244.828;244.397;243.855;243.201;242.434;241.554;240.561;239.456;238.24;236.914;235.48;233.94;232.297;230.553;228.712;226.777;224.753;222.644;220.454;218.189;215.854;213.454;210.995;208.484;205.927;203.329;200.699;198.042;195.365;192.676;189.981;187.287;184.602;181.933;179.286;176.667;174.085;171.546;169.055;166.619;164.244;161.936;159.701;157.543;155.467;153.478;151.581;149.778;148.074;146.472;144.974;143.583;142.3;141.129;140.068;139.121;138.286;137.564;136.955;136.457;136.07;135.793;135.624;135.56;135.599;135.74;135.978;136.311;136.736;137.249;137.846;138.524;139.279;140.106;141.002;141.962;142.983;144.06;145.189;146.366;147.587;148.848;150.144;151.473;152.831;154.214;155.619;157.043;158.482;159.935;161.398;162.87;164.348;165.83;167.314;168.8;170.286;171.77;173.253;174.733;176.21;177.683;179.153;180.619;182.082;183.542;184.999;186.454;187.907;189.359" dur="20s" repeatCount="indefinite" /></circle></g></g><g class="photo-still"><g data-photo-slider="detail"><rect x="99" y="255" width="176" height="6" rx="3" fill="#a4b9df" opacity=".17"/><path d="M187 253V263" stroke="#a9bbdc" stroke-opacity=".4" stroke-width=".8"/><rect x="99" y="255" width="90.359" height="6" rx="3" fill="#a6e5dd" opacity=".78"></rect><circle cx="189.359" cy="258" r="4.4" fill="#a6e5dd" stroke="#263c51" stroke-width="1.3"></circle></g></g><path d="M29 281L559 281" stroke="#b9c7ff" stroke-width="1" opacity="0.28"/><g aria-label="IMAGE / ANALYSIS" fill="#b9c7ff" transform="translate(30 313) scale(0.0065918 -0.0065918)"><path transform="translate(0.00 0)" d="M201 1493H1030V1323H717V170H1030V0H201V170H514V1323H201Z"/><path transform="translate(1278.51 0)" d="M86 1493H356L614 733L874 1493H1145V0H958V1319L692 532H539L272 1319V0H86Z"/><path transform="translate(2557.02 0)" d="M616 1315 403 551H829ZM494 1493H739L1196 0H987L877 389H354L246 0H37Z"/><path transform="translate(3835.53 0)" d="M1104 123Q1023 48 921.5 9.5Q820 -29 702 -29Q418 -29 260.0 174.5Q102 378 102 745Q102 1111 262.0 1315.5Q422 1520 707 1520Q801 1520 887.0 1493.5Q973 1467 1053 1413V1206Q972 1283 887.0 1319.5Q802 1356 707 1356Q510 1356 411.5 1203.5Q313 1051 313 745Q313 434 408.5 284.5Q504 135 702 135Q769 135 819.5 150.5Q870 166 911 199V600H694V766H1104Z"/><path transform="translate(5114.04 0)" d="M197 1493H1083V1323H399V881H1053V711H399V170H1102V0H197Z"/><path transform="translate(7671.07 0)" d="M889 1493H1079L293 -190H102Z"/><path transform="translate(10228.09 0)" d="M616 1315 403 551H829ZM494 1493H739L1196 0H987L877 389H354L246 0H37Z"/><path transform="translate(11506.60 0)" d="M139 1493H395L899 264V1493H1094V0H838L334 1229V0H139Z"/><path transform="translate(12785.11 0)" d="M616 1315 403 551H829ZM494 1493H739L1196 0H987L877 389H354L246 0H37Z"/><path transform="translate(14063.62 0)" d="M215 1493H418V170H1139V0H215Z"/><path transform="translate(15342.13 0)" d="M37 1493H252L616 834L979 1493H1196L717 670V0H514V670Z"/><path transform="translate(16620.64 0)" d="M1012 1442V1237Q920 1296 827.5 1326.0Q735 1356 641 1356Q498 1356 415.0 1289.5Q332 1223 332 1110Q332 1011 386.5 959.0Q441 907 590 872L696 848Q906 799 1002.0 694.0Q1098 589 1098 408Q1098 195 966.0 83.0Q834 -29 582 -29Q477 -29 371.0 -6.5Q265 16 158 61V276Q273 203 375.5 169.0Q478 135 582 135Q735 135 820.0 203.5Q905 272 905 395Q905 507 846.5 566.0Q788 625 643 657L535 682Q327 729 233.0 824.0Q139 919 139 1079Q139 1279 273.5 1399.5Q408 1520 631 1520Q717 1520 812.0 1500.5Q907 1481 1012 1442Z"/><path transform="translate(17899.16 0)" d="M201 1493H1030V1323H717V170H1030V0H201V170H514V1323H201Z"/><path transform="translate(19177.67 0)" d="M1012 1442V1237Q920 1296 827.5 1326.0Q735 1356 641 1356Q498 1356 415.0 1289.5Q332 1223 332 1110Q332 1011 386.5 959.0Q441 907 590 872L696 848Q906 799 1002.0 694.0Q1098 589 1098 408Q1098 195 966.0 83.0Q834 -29 582 -29Q477 -29 371.0 -6.5Q265 16 158 61V276Q273 203 375.5 169.0Q478 135 582 135Q735 135 820.0 203.5Q905 272 905 395Q905 507 846.5 566.0Q788 625 643 657L535 682Q327 729 233.0 824.0Q139 919 139 1079Q139 1279 273.5 1399.5Q408 1520 631 1520Q717 1520 812.0 1500.5Q907 1481 1012 1442Z"/></g><path d="M539 316L557 298M539 298H557V316" fill="none" stroke="#b9c7ff" stroke-width="2.5" stroke-linecap="round" stroke-linejoin="round"/></g><style>
.orbit{transform-box:fill-box;transform-origin:center;animation:orbit 30s linear infinite}
.float{animation:float 9s ease-in-out infinite}.float2{animation:float 9s ease-in-out -3s infinite}
.pulse{animation:pulse 5s ease-in-out infinite}.sweep{animation:sweep 7s ease-in-out infinite}
.bar{transform-box:fill-box;transform-origin:center;animation:bar 3.3s ease-in-out infinite}
@keyframes orbit{to{transform:rotate(360deg)}}@keyframes float{50%{transform:translateY(-12px)}}
@keyframes pulse{50%{opacity:.45}}@keyframes sweep{50%{transform:translateX(60px)}}
@keyframes bar{50%{transform:scaleY(.5)}}
@media(prefers-reduced-motion:reduce){.orbit,.float,.float2,.pulse,.sweep,.bar{animation:none!important}}

.photo-still{display:none}
@media(prefers-reduced-motion:reduce){.photo-motion{display:none}.photo-still{display:inline}}
</style></svg>