<svg xmlns="http://www.w3.org/2000/svg" width="228" height="220" viewBox="0 0 228 220" role="img" aria-labelledby="title desc"><title id="title">Posity — Bring negatives to light.</title><desc id="desc">Original illustrative artwork, not an application screenshot. Yeony creative tools.</desc><defs><radialGradient id="cardglow"><stop stop-color="#ffc295" stop-opacity=".22"/><stop offset="1" stop-color="#ffc295" stop-opacity="0"/></radialGradient><clipPath id="bounds"><rect x="0" y="0" width="228" height="220" rx="28" fill="#fff" opacity="1"/></clipPath></defs><g clip-path="url(#bounds)"><rect x="0" y="0" width="228" height="220" rx="24" fill="#2e2325" opacity="1"/><rect x="1" y="1" width="226" height="218" rx="24" fill="none" opacity="1" stroke="#36554d"/><circle cx="205.20000000000002" cy="55.0" r="136.79999999999998" fill="url(#cardglow)"/><g aria-label="Posity" fill="#effcf4" transform="translate(20 53) scale(0.0156250 -0.0156250)"><path transform="translate(0.00 0)" d="M188 1493H827Q1112 1493 1264.5 1366.5Q1417 1240 1417 1006Q1417 771 1264.5 644.5Q1112 518 827 518H573V0H188ZM573 1214V797H786Q898 797 959.0 851.5Q1020 906 1020 1006Q1020 1106 959.0 1160.0Q898 1214 786 1214Z"/><path transform="translate(1405.00 0)" d="M705 891Q586 891 523.5 805.5Q461 720 461 559Q461 398 523.5 312.5Q586 227 705 227Q822 227 884.0 312.5Q946 398 946 559Q946 720 884.0 805.5Q822 891 705 891ZM705 1147Q994 1147 1156.5 991.0Q1319 835 1319 559Q1319 283 1156.5 127.0Q994 -29 705 -29Q415 -29 251.5 127.0Q88 283 88 559Q88 835 251.5 991.0Q415 1147 705 1147Z"/><path transform="translate(2716.00 0)" d="M1047 1085V813Q932 861 825.0 885.0Q718 909 623 909Q521 909 471.5 883.5Q422 858 422 805Q422 762 459.5 739.0Q497 716 594 705L657 696Q932 661 1027.0 581.0Q1122 501 1122 330Q1122 151 990.0 61.0Q858 -29 596 -29Q485 -29 366.5 -11.5Q248 6 123 41V313Q230 261 342.5 235.0Q455 209 571 209Q676 209 729.0 238.0Q782 267 782 324Q782 372 745.5 395.5Q709 419 600 432L537 440Q298 470 202.0 551.0Q106 632 106 797Q106 975 228.0 1061.0Q350 1147 602 1147Q701 1147 810.0 1132.0Q919 1117 1047 1085Z"/><path transform="translate(3839.00 0)" d="M172 1120H530V0H172ZM172 1556H530V1264H172Z"/><path transform="translate(4445.00 0)" d="M563 1438V1120H932V864H563V389Q563 311 594.0 283.5Q625 256 717 256H901V0H594Q382 0 293.5 88.5Q205 177 205 389V864H27V1120H205V1438Z"/><path transform="translate(5328.00 0)" d="M25 1120H383L684 360L940 1120H1298L827 -106Q756 -293 661.5 -367.5Q567 -442 412 -442H205V-207H317Q408 -207 449.5 -178.0Q491 -149 514 -74L524 -43Z"/></g><g transform="translate(137 147) scale(0.37)"><rect x="-149" y="-76" width="298" height="152" rx="12" fill="#15242c" opacity="1" stroke="#d99f7d"/><rect x="-137" y="-67" width="13" height="7" rx="2" fill="#cdac8d" opacity="1"/><rect x="-137" y="60" width="13" height="7" rx="2" fill="#cdac8d" opacity="1"/><rect x="-107" y="-67" width="13" height="7" rx="2" fill="#cdac8d" opacity="1"/><rect x="-107" y="60" width="13" height="7" rx="2" fill="#cdac8d" opacity="1"/><rect x="-77" y="-67" width="13" height="7" rx="2" fill="#cdac8d" opacity="1"/><rect x="-77" y="60" width="13" height="7" rx="2" fill="#cdac8d" opacity="1"/><rect x="-47" y="-67" width="13" height="7" rx="2" fill="#cdac8d" opacity="1"/><rect x="-47" y="60" width="13" height="7" rx="2" fill="#cdac8d" opacity="1"/><rect x="-17" y="-67" width="13" height="7" rx="2" fill="#cdac8d" opacity="1"/><rect x="-17" y="60" width="13" height="7" rx="2" fill="#cdac8d" opacity="1"/><rect x="13" y="-67" width="13" height="7" rx="2" fill="#cdac8d" opacity="1"/><rect x="13" y="60" width="13" height="7" rx="2" fill="#cdac8d" opacity="1"/><rect x="43" y="-67" width="13" height="7" rx="2" fill="#cdac8d" opacity="1"/><rect x="43" y="60" width="13" height="7" rx="2" fill="#cdac8d" opacity="1"/><rect x="73" y="-67" width="13" height="7" rx="2" fill="#cdac8d" opacity="1"/><rect x="73" y="60" width="13" height="7" rx="2" fill="#cdac8d" opacity="1"/><rect x="103" y="-67" width="13" height="7" rx="2" fill="#cdac8d" opacity="1"/><rect x="103" y="60" width="13" height="7" rx="2" fill="#cdac8d" opacity="1"/><rect x="-130" y="-46" width="118" height="89" rx="4" fill="#c87746" opacity="1"/><circle cx="-46" cy="-23" r="12" fill="#f1d695"/><path d="M-130 42V20L-95 -15L-64 19L-46 -1L-12 30V43Z" fill="#654151"/><path d="M-130 35L-79 16L-12 39V43H-130Z" fill="#223a45" opacity=".45"/><rect x="12" y="-46" width="118" height="89" rx="4" fill="#88c9bf" opacity="1"/><circle cx="96" cy="-23" r="12" fill="#f1d695"/><path d="M12 42V20L47 -15L78 19L96 -1L130 30V43Z" fill="#34636c"/><path d="M12 35L63 16L130 39V43H12Z" fill="#223a45" opacity=".45"/><g class="sweep"><rect x="-33" y="-48" width="3" height="94" rx="1" fill="#fff2d4" opacity="0.9"/></g></g><g aria-label="EXPLORE" fill="#ffc295" transform="translate(20 197) scale(0.0058594 -0.0058594)"><path transform="translate(0.00 0)" d="M197 1493H1083V1323H399V881H1053V711H399V170H1102V0H197Z"/><path transform="translate(1335.40 0)" d="M86 1493H303L631 930L965 1493H1182L735 791L1214 0H997L631 643L236 0H18L518 791Z"/><path transform="translate(2670.80 0)" d="M399 1327V766H633Q773 766 851.5 840.0Q930 914 930 1047Q930 1180 852.0 1253.5Q774 1327 633 1327ZM197 1493H633Q883 1493 1012.0 1379.5Q1141 1266 1141 1047Q1141 826 1012.5 713.0Q884 600 633 600H399V0H197Z"/><path transform="translate(4006.20 0)" d="M215 1493H418V170H1139V0H215Z"/><path transform="translate(5341.60 0)" d="M905 745Q905 1074 837.5 1215.0Q770 1356 616 1356Q463 1356 395.5 1215.0Q328 1074 328 745Q328 417 395.5 276.0Q463 135 616 135Q770 135 837.5 275.5Q905 416 905 745ZM1116 745Q1116 355 992.5 163.0Q869 -29 616 -29Q363 -29 240.0 162.0Q117 353 117 745Q117 1136 240.5 1328.0Q364 1520 616 1520Q869 1520 992.5 1328.0Q1116 1136 1116 745Z"/><path transform="translate(6677.00 0)" d="M760 705Q838 685 893.0 629.5Q948 574 1030 408L1233 0H1016L838 377Q761 538 699.5 584.5Q638 631 539 631H346V0H143V1493H559Q805 1493 936.0 1382.0Q1067 1271 1067 1061Q1067 913 986.5 819.5Q906 726 760 705ZM346 1327V797H567Q712 797 783.0 862.0Q854 927 854 1061Q854 1190 778.5 1258.5Q703 1327 559 1327Z"/><path transform="translate(8012.40 0)" d="M197 1493H1083V1323H399V881H1053V711H399V170H1102V0H197Z"/></g><path d="M194 199L207 186M194 186H207V199" fill="none" stroke="#ffc295" stroke-width="2.5" stroke-linecap="round" stroke-linejoin="round"/></g><style>
.orbit{transform-box:fill-box;transform-origin:center;animation:orbit 30s linear infinite}
.float{animation:float 9s ease-in-out infinite}.float2{animation:float 9s ease-in-out -3s infinite}
.pulse{animation:pulse 5s ease-in-out infinite}.sweep{animation:sweep 7s ease-in-out infinite}
.bar{transform-box:fill-box;transform-origin:center;animation:bar 3.3s ease-in-out infinite}
@keyframes orbit{to{transform:rotate(360deg)}}@keyframes float{50%{transform:translateY(-12px)}}
@keyframes pulse{50%{opacity:.45}}@keyframes sweep{50%{transform:translateX(60px)}}
@keyframes bar{50%{transform:scaleY(.5)}}
@media(prefers-reduced-motion:reduce){.orbit,.float,.float2,.pulse,.sweep,.bar{animation:none!important}}
</style></svg>